<svg id="Слой_1" data-name="Слой 1" xmlns="http://www.w3.org/2000/svg" viewBox="0 0 213.92 200"><defs><style>.cls-1{fill:#838383;}</style></defs><path class="cls-1" d="M209.28,191.48c-4.74-2.09-13.31-7.07-17.55-16.94a29.45,29.45,0,0,1-2.21-8.4c.65-.55,1.29-1.1,1.94-1.67,1.76-1.57,3.47-3.25,5.09-5,11.36-12.3,17.37-27.1,17.37-42.81,0-1.2,0-2.39-.11-3.6-.11-1.73-.28-3.45-.52-5.1C209.45,81.9,188.15,59.62,159,51.19,149.59,21,117.75,0,80.9,0,36.29,0,0,31,0,69.12,0,87.7,8.87,105.65,24.41,118.6A29.64,29.64,0,0,1,22.19,127c-4.24,9.88-12.81,14.86-17.55,17A3,3,0,0,0,5,149.47a77.94,77.94,0,0,0,21.28,3h.93a78.17,78.17,0,0,0,32-7.37,64.92,64.92,0,0,0,4.26,7,69.64,69.64,0,0,0,8.57,10.07,80.45,80.45,0,0,0,6.31,5.56,1.51,1.51,0,0,0,.26.18A81.81,81.81,0,0,0,89,174.63a85.35,85.35,0,0,0,9.56,4.57A92,92,0,0,0,133,185.78c2.24,0,4.31-.08,6.27-.22.85,0,1.7-.11,2.54-.19,1.64,1.12,3.38,2.24,5.21,3.33A80.46,80.46,0,0,0,186.68,200h.93a77.61,77.61,0,0,0,21.28-3,3,3,0,0,0,2.14-2.63A3,3,0,0,0,209.28,191.48ZM27.17,146.56A70.7,70.7,0,0,1,14,145.48a37.46,37.46,0,0,0,13.64-16.16,35.72,35.72,0,0,0,2.81-11.83s0-.07,0-.11,0-.06,0-.1a2.58,2.58,0,0,0,0-.39.57.57,0,0,0,0-.13,2.93,2.93,0,0,0-1.25-1.92c-15-12-23.23-28.28-23.23-45.72,0-34.86,33.65-63.23,75-63.23,34.89,0,64.89,20,73,48.52h0a53.62,53.62,0,0,1,2,14.7c0,34.86-33.65,63.22-75,63.22a88.8,88.8,0,0,1-9-.46,3.05,3.05,0,0,0-.6-.06,2.89,2.89,0,0,0-1.71.56h0a77.63,77.63,0,0,1-10.31,6.17h0A72.9,72.9,0,0,1,27.17,146.56ZM186.75,194.1A74.59,74.59,0,0,1,150,183.62c-1.34-.79-2.62-1.61-3.85-2.44l-.08-.05c-.6-.4-1.21-.8-1.79-1.21a3,3,0,0,0-1.7-.54l-.31,0c-1.11.12-2.23.22-3.39.28-1.87.14-3.81.2-5.9.2a86.13,86.13,0,0,1-32.31-6.15c-.41-.16-.81-.36-1.22-.53a5,5,0,0,0-1.25-2A5.17,5.17,0,0,0,93,170.09c-.39-.21-.79-.39-1.18-.61a76,76,0,0,1-8.73-5.7,5.18,5.18,0,0,0-7.55-7.08c-.08.09-.15.2-.23.3a63.59,63.59,0,0,1-7-8.33l-.14-.21a5.17,5.17,0,0,0-.72-6.61,5.43,5.43,0,0,0-.81-.62c1.85-1.08,3.68-2.2,5.43-3.4,2.9.27,5.86.4,8.81.4a93.78,93.78,0,0,0,13.3-.95,6.14,6.14,0,0,0-.73.62,5.26,5.26,0,1,0,5.2-1.37c36.09-6.94,63.13-34.52,63.13-67.41a59.43,59.43,0,0,0-1.06-11.23,84.05,84.05,0,0,1,8.06,3.22,5.18,5.18,0,1,0,4.43,2.21c12.33,6.65,22.13,16.24,28.14,27.43a5.2,5.2,0,1,0,3.15,6.91,54.45,54.45,0,0,1,2.94,11.14c.21,1.5.37,3.06.47,4.61.06,1.07.1,2.16.1,3.25,0,14.2-5.47,27.62-15.81,38.81-1.49,1.61-3.07,3.16-4.66,4.58-1,.85-1.95,1.69-3,2.5a3,3,0,0,0-1.1,2.48,35.62,35.62,0,0,0,2.82,11.83A37.47,37.47,0,0,0,200,193,72.27,72.27,0,0,1,186.75,194.1Z"/><path class="cls-1" d="M108.86,152.59a5.18,5.18,0,1,0,7.33-.17A5.18,5.18,0,0,0,108.86,152.59Z"/><path class="cls-1" d="M126.8,133.79a5.18,5.18,0,1,0,7.33-.17A5.18,5.18,0,0,0,126.8,133.79Z"/><path class="cls-1" d="M144.74,115a5.18,5.18,0,1,0,7.33-.17A5.18,5.18,0,0,0,144.74,115Z"/><path class="cls-1" d="M170,96a5.18,5.18,0,1,0,.17,7.32A5.2,5.2,0,0,0,170,96Z"/><path class="cls-1" d="M188.12,84.55a5.18,5.18,0,1,0-7.32.17A5.2,5.2,0,0,0,188.12,84.55Z"/><path class="cls-1" d="M124.25,167.28a5.18,5.18,0,1,0,7.32-.17A5.18,5.18,0,0,0,124.25,167.28Z"/><path class="cls-1" d="M142.19,148.48a5.18,5.18,0,1,0,7.33-.17A5.18,5.18,0,0,0,142.19,148.48Z"/><path class="cls-1" d="M160.13,129.68a5.18,5.18,0,1,0,7.33-.17A5.18,5.18,0,0,0,160.13,129.68Z"/><path class="cls-1" d="M185.57,118a5.18,5.18,0,1,0-7.32.17A5.19,5.19,0,0,0,185.57,118Z"/><path class="cls-1" d="M157.58,163.17a5.18,5.18,0,1,0,7.32-.18A5.18,5.18,0,0,0,157.58,163.17Z"/><path class="cls-1" d="M182.85,144.2a5.18,5.18,0,1,0,.17,7.32A5.18,5.18,0,0,0,182.85,144.2Z"/><circle class="cls-1" cx="197.21" cy="129.14" r="5.18"/><path class="cls-1" d="M173,177.85a5.18,5.18,0,1,0,7.32-.17A5.19,5.19,0,0,0,173,177.85Z"/></svg>