<svg id="Слой_1" data-name="Слой 1" xmlns="http://www.w3.org/2000/svg" viewBox="0 0 223.54 200"><defs><style>.cls-1{fill:#838383;}</style></defs><path class="cls-1" d="M223.53,177.83a2.4,2.4,0,0,0,0-.28,3.55,3.55,0,0,0-.08-.47s0-.08,0-.12l-14.11-47.19V3.37A3.37,3.37,0,0,0,205.92,0H17.62a3.37,3.37,0,0,0-3.37,3.37v126.4L.14,177s0,.08,0,.12a3.55,3.55,0,0,0-.08.47,2.4,2.4,0,0,0,0,.28s0,.06,0,.1v18.7A3.37,3.37,0,0,0,3.37,200h216.8a3.37,3.37,0,0,0,3.37-3.37v-18.7S223.53,177.86,223.53,177.83ZM21,6.73H202.55V126.89H21ZM47.8,133.63H176.41v11.83H47.8Zm-27.67,0H41.07v15.19a3.36,3.36,0,0,0,3.36,3.37H179.78a3.37,3.37,0,0,0,3.37-3.37V133.63h20.26l12.24,40.93H7.89Zm196.68,59.64H6.73v-12H216.81Z"/><polygon class="cls-1" points="85.43 159.34 83.06 165.88 141.16 165.88 138.78 159.34 85.43 159.34"/></svg>