<svg width="102" height="23" viewBox="0 0 102 23" fill="none" xmlns="http://www.w3.org/2000/svg">
<path d="M12.7225 21.46L7.27695 7.01219L4.10245 21.46H0L4.49317 1.11993H9.1084L14.3586 15.2613L17.5087 1.11993H21.6112L17.1424 21.46H12.7225Z" fill="url(#paint0_linear_14310_42)"/>
<path d="M30.0848 18.0896C30.4577 17.7884 30.7863 17.4395 31.0616 17.0526H35.2373C34.7994 18.1076 34.0941 19.0395 33.186 19.763C31.5209 21.2275 29.3331 22.0131 27.0812 21.955C26.1793 21.9943 25.2788 21.8511 24.4377 21.5344C23.5966 21.2178 22.8335 20.7349 22.1973 20.1166C21.5335 19.2655 21.0989 18.2688 20.9327 17.2157C20.7665 16.1626 20.8738 15.0861 21.2449 14.0829C21.6853 11.7567 22.9343 9.64502 24.7857 8.09636C26.3846 6.74105 28.4453 6.00256 30.5731 6.02229C31.7313 5.99217 32.8795 6.23486 33.9186 6.72936C34.875 7.19605 35.6219 7.98394 36.0187 8.94485C36.4518 9.92523 36.6198 10.9957 36.507 12.056C36.4302 13.0589 36.2586 14.0529 35.9943 15.0257H25.323C25.1344 15.5738 25.1076 16.1617 25.2456 16.7236C25.3836 17.2856 25.681 17.7994 26.1044 18.2075C26.6484 18.6106 27.3245 18.8113 28.0091 18.7731C28.7574 18.7568 29.4822 18.5181 30.0848 18.0896ZM29.6696 9.20411C29.223 9.18588 28.7771 9.25359 28.3579 9.40331C27.9387 9.55303 27.5545 9.78175 27.2277 10.0762C26.5402 10.7292 26.036 11.5403 25.7625 12.4331H32.1116C32.2179 12.0314 32.2315 11.6121 32.1514 11.2048C32.0712 10.7975 31.8992 10.4122 31.6476 10.0762C31.4101 9.7932 31.1079 9.5672 30.7647 9.4159C30.4216 9.26459 30.0467 9.1921 29.6696 9.20411Z" fill="url(#paint1_linear_14310_42)"/>
<path d="M43.2223 10.3354C43.1615 10.5187 43.167 10.7166 43.238 10.8965C43.309 11.0763 43.4412 11.2276 43.6131 11.3253C44.9109 11.8039 46.2515 12.1668 47.6179 12.4095C48.864 12.6208 50.0091 13.2064 50.8901 14.0829C51.2082 14.4782 51.4268 14.9395 51.5285 15.4304C51.6302 15.9212 51.6122 16.4282 51.4761 16.9112C51.172 18.3839 50.299 19.6899 49.0342 20.5644C47.3525 21.5917 45.3803 22.0861 43.3933 21.9785C42.4808 22.08 41.5565 21.9984 40.6782 21.7388C39.8 21.4792 38.9868 21.0473 38.2896 20.4701C37.8129 19.9614 37.4778 19.3443 37.3155 18.6765C37.1532 18.0087 37.1691 17.3121 37.3617 16.6519H41.4886C41.3943 17.167 41.4802 17.6976 41.7328 18.1603C42.1235 18.6789 43.0026 18.9381 44.37 18.9381C45.0481 18.9598 45.723 18.8392 46.348 18.5846C46.5844 18.5032 46.7957 18.3654 46.9622 18.1841C47.1287 18.0028 47.2451 17.7839 47.3004 17.5476C47.3592 17.3666 47.3553 17.172 47.2892 16.9933C47.2231 16.8147 47.0984 16.6617 46.9341 16.5576C45.6565 16.0186 44.3218 15.6156 42.9538 15.3556C41.6926 15.1429 40.5175 14.5962 39.5594 13.7765C39.2537 13.3981 39.0493 12.9529 38.9641 12.4802C38.879 12.0075 38.9157 11.5218 39.0711 11.0661C39.4114 9.62702 40.2786 8.3549 41.513 7.48357C42.9925 6.44581 44.7888 5.9149 46.6167 5.97516C48.2086 5.882 49.7901 6.27805 51.1343 7.10647C51.6894 7.58359 52.0987 8.19806 52.3182 8.88347C52.5377 9.56888 52.5589 10.2991 52.3796 10.9954H48.3016C48.3741 10.5848 48.3054 10.1627 48.1062 9.79334C47.859 9.49458 47.5351 9.26344 47.1667 9.12287C46.7983 8.9823 46.3982 8.93717 46.0062 8.99199C45.3212 8.94762 44.6369 9.08626 44.0282 9.39267C43.8349 9.48916 43.6638 9.62243 43.5253 9.78445C43.3868 9.94648 43.2837 10.1339 43.2223 10.3354Z" fill="url(#paint2_linear_14310_42)"/>
<path d="M58.9729 17.3119C58.8264 17.9246 58.8264 18.3018 58.9729 18.4667C59.417 18.6854 59.9198 18.7676 60.4137 18.7024H61.2439L60.5846 21.6486H58.631C56.7019 21.6486 55.4565 21.3893 54.8949 20.6822C54.7071 20.3716 54.5904 20.0259 54.5525 19.6681C54.5146 19.3104 54.5564 18.949 54.6751 18.6082L56.7019 9.32195H54.5286L55.1635 6.51724H57.3368L58.2647 2.32196H62.2939L61.4149 6.54081H63.8568L63.2219 9.34553H60.7799L58.9729 17.3119Z" fill="url(#paint3_linear_14310_42)"/>
<path d="M66.6162 6.42296H70.7675L67.4465 21.46H63.3196L66.6162 6.42296ZM67.8128 0.978516H71.9641L71.1826 4.60815H67.0313L67.8128 0.978516Z" fill="url(#paint4_linear_14310_42)"/>
<path d="M71.7199 18.231C71.8193 18.9623 72.1929 19.6331 72.7699 20.1166C73.4128 20.5232 74.1768 20.7137 74.9433 20.6587C75.3411 20.6724 75.7382 20.6165 76.1153 20.4937C76.4221 20.4154 76.7061 20.2702 76.9456 20.0694C77.1545 19.9036 77.3215 19.694 77.434 19.4566C77.5391 19.2343 77.5973 18.9939 77.605 18.7496C77.6237 18.5347 77.5866 18.3187 77.4971 18.1212C77.4075 17.9236 77.2684 17.7508 77.0922 17.6182C76.7131 17.3433 76.2815 17.1431 75.8223 17.029C75.2761 16.8813 74.7217 16.7633 74.1618 16.6755C73.5883 16.5714 73.0247 16.4217 72.4769 16.2277C71.9937 16.0283 71.5607 15.7309 71.2071 15.3556C70.844 14.9064 70.6618 14.3454 70.6942 13.7765C70.6852 13.3696 70.7704 12.9659 70.9437 12.5949C71.1169 12.2238 71.3737 11.8948 71.6954 11.6317C72.4908 11.0432 73.4789 10.7505 74.4793 10.8068C75.4813 10.7716 76.4703 11.0349 77.312 11.561C77.7035 11.8627 78.0237 12.2417 78.2511 12.6726C78.4785 13.1035 78.6078 13.5763 78.6305 14.0593H77.3608C77.3442 13.7315 77.2524 13.4113 77.0919 13.1219C76.9314 12.8325 76.7063 12.5811 76.4328 12.3859C75.8376 12.0382 75.1501 11.8662 74.4548 11.891C73.8113 11.8489 73.1726 12.0239 72.6478 12.3859C72.448 12.5408 72.2886 12.7387 72.1826 12.9639C72.0765 13.189 72.0268 13.4351 72.0373 13.6822C72.0266 13.886 72.0677 14.0892 72.1571 14.2741C72.2465 14.459 72.3814 14.6199 72.5501 14.7428C72.9293 15.0177 73.3607 15.2179 73.8199 15.332C74.3645 15.5041 74.919 15.6458 75.4805 15.7563C76.0534 15.8647 76.6109 16.0387 77.141 16.2748C77.6231 16.4761 78.0557 16.7733 78.4108 17.1469C78.7739 17.5961 78.9561 18.1571 78.9236 18.726C78.9384 19.188 78.82 19.6449 78.5817 20.0459C78.3609 20.4238 78.0515 20.7467 77.6782 20.9886C77.2622 21.2565 76.7987 21.4483 76.3107 21.5543C75.7359 21.692 75.1447 21.7554 74.5525 21.7428C73.9718 21.7487 73.3941 21.6611 72.8432 21.4836C72.3834 21.3085 71.9612 21.0528 71.5978 20.7294C70.909 20.0618 70.5002 19.172 70.4501 18.231H71.7199Z" fill="url(#paint5_linear_14310_42)"/>
<path d="M81.6342 21.46V7.03576H82.8796V12.5273C83.3455 12.0507 83.8703 11.6311 84.4424 11.2782C85.029 10.9545 85.696 10.7915 86.3716 10.8068C86.9983 10.8023 87.6201 10.9144 88.203 11.1368C88.7919 11.3744 89.2936 11.7766 89.6437 12.2917C89.8955 12.6334 90.0549 13.0303 90.1077 13.4465C90.1335 13.8547 90.1335 14.264 90.1077 14.6721V21.46H88.8623V14.6957C88.9227 13.9452 88.697 13.1992 88.2274 12.598C87.9417 12.3398 87.6023 12.1432 87.2318 12.0213C86.8613 11.8994 86.4682 11.855 86.0785 11.891C85.7209 11.8826 85.3649 11.9385 85.0285 12.056C84.7164 12.1673 84.4207 12.3179 84.1494 12.5038C83.9077 12.6859 83.6939 12.9001 83.5144 13.1401C83.3333 13.376 83.1932 13.6387 83.0993 13.9179C82.9609 14.224 82.8783 14.551 82.8551 14.8842C82.8551 15.1906 82.8551 15.5206 82.8551 15.8741V21.46H81.6342Z" fill="url(#paint6_linear_14310_42)"/>
<path d="M93.4532 21.46V7.03576H94.6986V12.5273C95.1645 12.0507 95.6893 11.6311 96.2614 11.2782C96.8404 10.9576 97.4987 10.7946 98.1661 10.8068C98.8008 10.8028 99.4305 10.9148 100.022 11.1368C100.611 11.3744 101.113 11.7766 101.463 12.2917C101.714 12.6334 101.874 13.0303 101.927 13.4465C101.952 13.8547 101.952 14.264 101.927 14.6721V21.46H100.681V14.6957C100.742 13.9452 100.516 13.1992 100.046 12.598C99.7607 12.3398 99.4213 12.1432 99.0508 12.0213C98.6803 11.8994 98.2872 11.855 97.8975 11.891C97.5399 11.8826 97.1839 11.9385 96.8475 12.056C96.5354 12.1673 96.2397 12.3179 95.9684 12.5038C95.7248 12.6916 95.5037 12.905 95.3091 13.1401C95.1374 13.3815 94.9979 13.6429 94.8939 13.9179C94.7744 14.2286 94.7004 14.5538 94.6741 14.8842C94.6741 15.1906 94.6741 15.5206 94.6741 15.8741V21.46H93.4532Z" fill="url(#paint7_linear_14310_42)"/>
<defs>
<linearGradient id="paint0_linear_14310_42" x1="50.973" y1="0.978507" x2="108.5" y2="17.9785" gradientUnits="userSpaceOnUse">
<stop stop-color="white"/>
<stop offset="1" stop-color="white" stop-opacity="0"/>
</linearGradient>
<linearGradient id="paint1_linear_14310_42" x1="50.973" y1="0.978507" x2="108.5" y2="17.9785" gradientUnits="userSpaceOnUse">
<stop stop-color="white"/>
<stop offset="1" stop-color="white" stop-opacity="0"/>
</linearGradient>
<linearGradient id="paint2_linear_14310_42" x1="50.973" y1="0.978507" x2="108.5" y2="17.9785" gradientUnits="userSpaceOnUse">
<stop stop-color="white"/>
<stop offset="1" stop-color="white" stop-opacity="0"/>
</linearGradient>
<linearGradient id="paint3_linear_14310_42" x1="50.973" y1="0.978507" x2="108.5" y2="17.9785" gradientUnits="userSpaceOnUse">
<stop stop-color="white"/>
<stop offset="1" stop-color="white" stop-opacity="0"/>
</linearGradient>
<linearGradient id="paint4_linear_14310_42" x1="50.973" y1="0.978507" x2="108.5" y2="17.9785" gradientUnits="userSpaceOnUse">
<stop stop-color="white"/>
<stop offset="1" stop-color="white" stop-opacity="0"/>
</linearGradient>
<linearGradient id="paint5_linear_14310_42" x1="50.973" y1="0.978507" x2="108.5" y2="17.9785" gradientUnits="userSpaceOnUse">
<stop stop-color="white"/>
<stop offset="1" stop-color="white" stop-opacity="0"/>
</linearGradient>
<linearGradient id="paint6_linear_14310_42" x1="50.973" y1="0.978507" x2="108.5" y2="17.9785" gradientUnits="userSpaceOnUse">
<stop stop-color="white"/>
<stop offset="1" stop-color="white" stop-opacity="0"/>
</linearGradient>
<linearGradient id="paint7_linear_14310_42" x1="50.973" y1="0.978507" x2="108.5" y2="17.9785" gradientUnits="userSpaceOnUse">
<stop stop-color="white"/>
<stop offset="1" stop-color="white" stop-opacity="0"/>
</linearGradient>
</defs>
</svg>
