<svg id="Слой_1" data-name="Слой 1" xmlns="http://www.w3.org/2000/svg" viewBox="0 0 182.04 200"><defs><style>.cls-1{fill:#838383;}</style></defs><path class="cls-1" d="M178.35,127.74c-10.37-31.85-41-51.93-56.58-59.8a40.62,40.62,0,0,1,13.17-.22,41.67,41.67,0,0,1,23.19,11.86,3.09,3.09,0,0,0,4.4-4.35A47.84,47.84,0,0,0,135.85,61.6a45.43,45.43,0,0,0-5.57-.46,57.36,57.36,0,0,1,10.86-2.84,58.83,58.83,0,0,1,32.64,4.21,3.09,3.09,0,0,0,2.47-5.67A64.66,64.66,0,0,0,116,61.22,75.16,75.16,0,0,1,119.79,43c.81-2.32,3.47-7.9,6.28-10.93l1.25-1.33c5.36-5.72,11.44-12.21,5.48-18.93-7.07-8-16.7-3-23.07.29-1.89,1-4.93,2.55-6.26,2.7-.33-.57-.78-1.55-1.13-2.32C100,7.26,95-3.53,81.52,1.15,74,3.75,71.8,8.35,70.18,11.72c-1.37,2.83-2.08,4.1-4.66,4.73-1.68.42-2.8,0-4.65-.61A17.48,17.48,0,0,0,50.21,15c-3.05.66-10.3,2.84-11.81,8.76-1,3.85,1.05,7.14,2.14,8.91A75.54,75.54,0,0,0,51.09,45.9,40.61,40.61,0,0,1,56,51.62c2.79,4.33,3.66,10.16,2.67,17.31-34.76,21.21-54,42.21-57.29,62.44l-.18,1.2c-3.94,24.17,2.17,43.64,17.66,56.3,8.28,6.78,17,9.2,29.29,11.09l86.05,0,.17,0c8.21-.94,23.64-4.39,34.73-16.91C182.31,168.12,185.43,149.5,178.35,127.74ZM61.16,48.27c-.15-.23-.32-.45-.48-.68a14.12,14.12,0,0,0,1.8.13,10.24,10.24,0,0,0,4.67-1.06c2.63-1.32,4.06-3.54,5.32-5.5C73.85,39,75,37.16,77.75,36a11.71,11.71,0,0,1,5.37-.89c3.34.26,5.41,2.14,7.8,4.31A21.92,21.92,0,0,0,97.53,44c4.54,1.82,9.83,1.2,16-1.89a83.45,83.45,0,0,0-4,23.71,38.7,38.7,0,0,1-44.76,3.4C65.9,60.81,64.7,53.76,61.16,48.27Zm-16.77-23c.5-2,4-3.59,7.13-4.26a11.64,11.64,0,0,1,7.32.68,13.16,13.16,0,0,0,8.15.78c5.52-1.35,7.32-5.06,8.76-8S78.48,8.75,83.55,7c7.58-2.63,10.23,1.68,13.17,8,1.24,2.7,2.22,4.84,4.35,5.57,3.37,1.15,7.14-.79,11.5-3,7.08-3.66,12-5.75,15.6-1.68,1.83,2.05.87,3.93-5.36,10.58l-1.27,1.36a28.23,28.23,0,0,0-2.88,3.78c-5.71,4.28-13.49,8.8-18.83,6.67a16.9,16.9,0,0,1-4.75-3.46c-2.68-2.43-6-5.47-11.47-5.9a18,18,0,0,0-8.34,1.39c-4.42,1.92-6.41,5-8,7.5-1.1,1.71-1.83,2.78-2.89,3.32-2.56,1.29-7.46-.52-13.81-5.07a61.59,61.59,0,0,1-4.76-6.68C44.92,28,44.09,26.46,44.39,25.26ZM164.43,179c-9.65,10.89-23.26,14-30.63,14.84h-85c-11.1-1.72-18.94-3.89-26.08-9.73-13.69-11.18-19-28.65-15.47-50.53l.18-1.2c2.89-18,21.55-38,54-57.91a45,45,0,0,0,51.75-3.55c8.09,3.48,47.33,22.15,59.25,58.77C178.82,149.19,176.12,165.77,164.43,179Z"/><path class="cls-1" d="M83.25,103.89c-7.47,3.52-13,12.9-14.88,24.85H58.55l-2.19,6.18H67.72c0,.47-.06.93-.08,1.41,0,1.08,0,2.19,0,3.32H58.55l-2.19,6.19H68.11c1.31,10.19,5.43,20.41,14,25.08a22,22,0,0,0,10.72,2.56,40.36,40.36,0,0,0,14.76-3.21v-6.8s-.75.4-1.1.56c-6.13,2.66-14.84,5.06-21.41,1.46-5.53-3-9.39-10.33-10.73-19.65h28l2.18-6.19H73.82c0-1,0-2.07,0-3.13,0-.54.05-1.06.09-1.6h28.42l2.18-6.18H74.64c1.71-9.38,5.84-16.72,11.23-19.24,2.38-1.11,9.21-3,21.3,3.86a3.52,3.52,0,0,0,.4.18v-7C95,100.29,87,102.14,83.25,103.89Z"/></svg>