<svg id="Слой_1" data-name="Слой 1" xmlns="http://www.w3.org/2000/svg" viewBox="0 0 200 200"><defs><style>.cls-1{fill:#838383;}</style></defs><path class="cls-1" d="M196.37,0H144.56V48.19H96.37V96.37H48.19v48.19H0v51.81a3.63,3.63,0,1,0,7.25,0V151.82H51.81a3.63,3.63,0,0,0,3.63-3.63V103.63H100a3.64,3.64,0,0,0,3.63-3.63V55.44h44.56a3.62,3.62,0,0,0,3.62-3.63V7.26h44.56a3.63,3.63,0,0,0,0-7.26Z"/><path class="cls-1" d="M196.24,83.34A3.61,3.61,0,0,0,196,82s0,0,0-.06a3.62,3.62,0,0,0-2-2l-.05,0a3.66,3.66,0,0,0-1.33-.26H151.94a3.63,3.63,0,0,0,0,7.26h31.91l-77.11,77.12a3.62,3.62,0,0,0,0,5.13,3.58,3.58,0,0,0,2.56,1.06,3.62,3.62,0,0,0,2.57-1.06L189,92.1V124a3.63,3.63,0,1,0,7.26,0V83.35Z"/></svg>